# Alias Wavefront OBJ File Exported from SketchUp
# with OBJexporter (c) 2010/2011 TIG
# Units = meters

mtllib hexagon2.mtl

g hexagon2_Main-Default_Material
usemtl Default_Material
v 1.150035 0.000000 -0.714306
v 1.150035 0.000000 -0.538330
v 1.099235 0.000000 -0.626318
v 1.251635 0.000000 -0.714306
v 1.251635 0.000000 -0.538330
v 1.302435 0.000000 -0.626318
v 1.150035 0.010160 -0.538330
v 1.150035 0.010160 -0.714306
v 1.099235 0.010160 -0.626318
v 1.251635 0.010160 -0.538330
v 1.251635 0.010160 -0.714306
v 1.302435 0.010160 -0.626318
v 1.302435 0.000000 -0.626318
v 1.251635 0.010160 -0.538330
v 1.251635 0.000000 -0.538330
v 1.302435 0.010160 -0.626318
v 1.251635 0.010160 -0.538330
v 1.150035 0.000000 -0.538330
v 1.251635 0.000000 -0.538330
v 1.150035 0.010160 -0.538330
v 1.099235 0.010160 -0.626318
v 1.150035 0.000000 -0.538330
v 1.150035 0.010160 -0.538330
v 1.099235 0.000000 -0.626318
v 1.150035 0.010160 -0.714306
v 1.099235 0.000000 -0.626318
v 1.099235 0.010160 -0.626318
v 1.150035 0.000000 -0.714306
v 1.150035 0.010160 -0.714306
v 1.251635 0.000000 -0.714306
v 1.150035 0.000000 -0.714306
v 1.251635 0.010160 -0.714306
v 1.251635 0.000000 -0.714306
v 1.302435 0.010160 -0.626318
v 1.302435 0.000000 -0.626318
v 1.251635 0.010160 -0.714306
vn 0.000000 -1.000000 -0.000000
vn 0.000000 -1.000000 -0.000000
vn 0.000000 -1.000000 -0.000000
vn 0.000000 -1.000000 -0.000000
vn 0.000000 -1.000000 -0.000000
vn 0.000000 -1.000000 -0.000000
vn 0.000000 1.000000 -0.000000
vn 0.000000 1.000000 -0.000000
vn 0.000000 1.000000 -0.000000
vn 0.000000 1.000000 -0.000000
vn 0.000000 1.000000 -0.000000
vn 0.000000 1.000000 -0.000000
vn 0.866025 0.000000 0.500000
vn 0.866025 0.000000 0.500000
vn 0.866025 0.000000 0.500000
vn 0.866025 0.000000 0.500000
vn -0.000000 -0.000000 1.000000
vn -0.000000 -0.000000 1.000000
vn -0.000000 -0.000000 1.000000
vn -0.000000 -0.000000 1.000000
vn -0.866025 -0.000000 0.500000
vn -0.866025 -0.000000 0.500000
vn -0.866025 -0.000000 0.500000
vn -0.866025 -0.000000 0.500000
vn -0.866025 0.000000 -0.500000
vn -0.866025 0.000000 -0.500000
vn -0.866025 0.000000 -0.500000
vn -0.866025 0.000000 -0.500000
vn 0.000000 0.000000 -1.000000
vn 0.000000 0.000000 -1.000000
vn 0.000000 0.000000 -1.000000
vn 0.000000 0.000000 -1.000000
vn 0.866025 0.000000 -0.500000
vn 0.866025 0.000000 -0.500000
vn 0.866025 0.000000 -0.500000
vn 0.866025 0.000000 -0.500000
#vt -45.276951 28.122303
#vt -45.276951 21.194099
#vt -43.276951 24.658201
#vt -49.276951 28.122303
#vt -49.276951 21.194099
#vt -51.276951 24.658201
vt 0.25 0.00
vt 0.25 1.00
vt 0.00 0.50
vt 0.75 0.00
vt 0.75 1.00
vt 1.00 0.50
#vt 45.276951 21.194099
#vt 45.276951 28.122303
#vt 43.276951 24.658201
#vt 49.276951 21.194099
#vt 49.276951 28.122303
#vt 51.276951 24.658201
vt 0.25 1.00
vt 0.25 0.00
vt 0.00 0.50
vt 0.75 1.00
vt 0.75 0.00
vt 1.00 0.50
vt 46.993104 0.000000
vt 42.993104 0.100000
vt 42.993104 0.000000
vt 46.993104 0.100000
#vt 0.75 0.00
#vt 0.25 1.00
#vt 0.25 0.00
#vt 0.75 1.00
vt 49.276951 0.100000
vt 45.276951 0.000000
vt 49.276951 0.000000
vt 45.276951 0.100000
#vt 0.75 1.00
#vt 0.25 0.00
#vt 0.75 0.00
#vt 0.25 1.00
vt 0.283847 0.100000
vt 4.283847 0.000000
vt 4.283847 0.100000
vt 0.283847 0.000000
#vt 0.25 1.00
#vt 0.75 0.00
#vt 0.75 1.00
#vt 0.25 0.00
vt -46.993104 0.100000
vt -42.993104 0.000000
vt -42.993104 0.100000
vt -46.993104 0.000000
#vt 0.75 1.00
#vt 0.25 0.00
#vt 0.25 1.00
#vt 0.75 0.00
vt -45.276951 0.100000
vt -49.276951 0.000000
vt -45.276951 0.000000
vt -49.276951 0.100000
#vt 0.25 1.00
#vt 0.75 0.00
#vt 0.25 0.00
#vt 0.75 1.00
vt -0.283847 0.000000
vt -4.283847 0.100000
vt -4.283847 0.000000
vt -0.283847 0.100000
#vt 0.25 0.00
#vt 0.75 1.00
#vt 0.75 0.00
#vt 0.25 1.00
f 1/1/1 2/2/2 3/3/3
f 2/2/2 1/1/1 4/4/4
f 2/2/2 4/4/4 5/5/5
f 5/5/5 4/4/4 6/6/6
f 7/7/7 8/8/8 9/9/9
f 8/8/8 7/7/7 10/10/10
f 8/8/8 10/10/10 11/11/11
f 11/11/11 10/10/10 12/12/12
f 13/13/13 14/14/14 15/15/15
f 14/14/14 13/13/13 16/16/16
f 17/17/17 18/18/18 19/19/19
f 18/18/18 17/17/17 20/20/20
f 21/21/21 22/22/22 23/23/23
f 22/22/22 21/21/21 24/24/24
f 25/25/25 26/26/26 27/27/27
f 26/26/26 25/25/25 28/28/28
f 29/29/29 30/30/30 31/31/31
f 30/30/30 29/29/29 32/32/32
f 33/33/33 34/34/34 35/35/35
f 34/34/34 33/33/33 36/36/36

