# Alias Wavefront OBJ File Exported from SketchUp
# with OBJexporter (c) 2010/2011 TIG
# Units = meters

mtllib triangle2.mtl

g triangle2_Main-Default_Material
usemtl Default_Material
v 1.428743 0.000000 -0.634475
v 1.252767 0.000000 -0.634475
v 1.340755 0.000000 -0.786875
v 1.428743 0.010160 -0.634475
v 1.340755 0.010160 -0.786875
v 1.252767 0.010160 -0.634475
v 1.340755 0.000000 -0.786875
v 1.428743 0.010160 -0.634475
v 1.428743 0.000000 -0.634475
v 1.340755 0.010160 -0.786875
v 1.428743 0.010160 -0.634475
v 1.252767 0.000000 -0.634475
v 1.428743 0.000000 -0.634475
v 1.252767 0.010160 -0.634475
v 1.340755 0.010160 -0.786875
v 1.252767 0.000000 -0.634475
v 1.252767 0.010160 -0.634475
v 1.340755 0.000000 -0.786875
vn 0.000000 -1.000000 -0.000000
vn 0.000000 -1.000000 -0.000000
vn 0.000000 -1.000000 -0.000000
vn -0.000000 1.000000 0.000000
vn -0.000000 1.000000 0.000000
vn -0.000000 1.000000 0.000000
vn 0.866025 0.000000 -0.500000
vn 0.866025 0.000000 -0.500000
vn 0.866025 0.000000 -0.500000
vn 0.866025 0.000000 -0.500000
vn -0.000000 -0.000000 1.000000
vn -0.000000 -0.000000 1.000000
vn -0.000000 -0.000000 1.000000
vn -0.000000 -0.000000 1.000000
vn -0.866025 0.000000 -0.500000
vn -0.866025 0.000000 -0.500000
vn -0.866025 0.000000 -0.500000
vn -0.866025 0.000000 -0.500000
#vt -56.249728 24.979328
#vt -49.321525 24.979328
#vt -52.785627 30.979328
vt 1.0 1.0
vt 0.0 1.0
vt 0.5 0.0
vt 56.249728 24.979328
vt 52.785627 30.979328
vt 49.321525 24.979328
#vt 0.0 1.0
#vt 0.5 1.0
#vt 1.0 1.0
vt 0.436071 0.000000
vt -6.492132 0.100000
vt -6.492132 0.000000
vt 0.436071 0.100000
vt 56.249728 0.100000
vt 49.321525 0.000000
vt 56.249728 0.000000
vt 49.321525 0.100000
vt -53.221698 0.100000
vt -46.293495 0.000000
vt -46.293495 0.100000
vt -53.221698 0.000000
f 1/1/1 2/2/2 3/3/3
f 4/4/4 5/5/5 6/6/6
f 7/7/7 8/8/8 9/9/9
f 8/8/8 7/7/7 10/10/10
f 11/11/11 12/12/12 13/13/13
f 12/12/12 11/11/11 14/14/14
f 15/15/15 16/16/16 17/17/17
f 16/16/16 15/15/15 18/18/18

